<svg preserveAspectRatio="none" width="100%" height="100%" overflow="visible" style="display: block;" viewBox="0 0 17.4146 19.9828" fill="none" xmlns="http://www.w3.org/2000/svg">
<path id="Shape" d="M2.55031 2.55031C5.95072 -0.850103 11.4639 -0.850103 14.8643 2.55031C18.2647 5.95072 18.2647 11.4639 14.8643 14.8643L13.6773 16.0382C12.8024 16.8969 11.6673 18.0008 10.2715 19.3504C9.39921 20.1937 8.01539 20.1936 7.14328 19.3501L3.65218 15.9543C3.21341 15.5234 2.84615 15.1601 2.55031 14.8643C-0.850103 11.4639 -0.850103 5.95072 2.55031 2.55031ZM13.8036 3.61097C10.989 0.796344 6.42559 0.796344 3.61097 3.61097C0.796344 6.42559 0.796344 10.989 3.61097 13.8036L5.09804 15.2711C5.91695 16.0725 6.94641 17.0729 8.18609 18.2719C8.47679 18.5531 8.93807 18.5531 9.22882 18.272L12.6237 14.9705C13.0927 14.5102 13.486 14.1213 13.8036 13.8036C16.6182 10.989 16.6182 6.42559 13.8036 3.61097ZM8.7073 5.98096C10.365 5.98096 11.7088 7.3248 11.7088 8.98251C11.7088 10.6402 10.365 11.9841 8.7073 11.9841C7.04958 11.9841 5.70574 10.6402 5.70574 8.98251C5.70574 7.3248 7.04958 5.98096 8.7073 5.98096ZM8.7073 7.48096C7.87801 7.48096 7.20574 8.15323 7.20574 8.98251C7.20574 9.8118 7.87801 10.4841 8.7073 10.4841C9.53658 10.4841 10.2088 9.8118 10.2088 8.98251C10.2088 8.15323 9.53658 7.48096 8.7073 7.48096Z" fill="var(--fill-0, #212936)"/>
</svg>
