<svg preserveAspectRatio="none" width="100%" height="100%" overflow="visible" style="display: block;" viewBox="0 0 11 11" fill="none" xmlns="http://www.w3.org/2000/svg">
<path id="Shape" d="M0.0885911 0.215694L0.146447 0.146447C0.320013 -0.0271197 0.589437 -0.046405 0.784306 0.0885911L0.853553 0.146447L5.5 4.793L10.1464 0.146447C10.3417 -0.0488154 10.6583 -0.0488154 10.8536 0.146447C11.0488 0.341709 11.0488 0.658291 10.8536 0.853553L6.207 5.5L10.8536 10.1464C11.0271 10.32 11.0464 10.5894 10.9114 10.7843L10.8536 10.8536C10.68 11.0271 10.4106 11.0464 10.2157 10.9114L10.1464 10.8536L5.5 6.207L0.853553 10.8536C0.658291 11.0488 0.341709 11.0488 0.146447 10.8536C-0.0488154 10.6583 -0.0488154 10.3417 0.146447 10.1464L4.793 5.5L0.146447 0.853553C-0.0271197 0.679987 -0.046405 0.410563 0.0885911 0.215694L0.146447 0.146447L0.0885911 0.215694Z" fill="var(--fill-0, #242424)"/>
</svg>
